<svg class="thumb" width="490" height="400" viewBox="0,0,490,400" xmlns="http://www.w3.org/2000/svg" xmlns:inkscape="http://www.inkscape.org/namespaces/inkscape" xmlns:sodipodi="http://sodipodi.sourceforge.net/DTD/sodipodi-0.dtd" xmlns:xlink="http://www.w3.org/1999/xlink" xmlns:ns1="http://www.inkscape.org/namespaces/inkscape" xmlns:sketch="http://www.bohemiancoding.com/sketch/ns"><defs></defs><g transform="matrix(4.0089,0,0,4.0089,45.5525,0.5525)"><svg width="100.0129077372079" height="100" viewBox="-5,-5,100.0129077372079,100"><defs><linearGradient x1="0" y1="0.5" x2="1" y2="0.5" id="linearGradientSjj7z5ro81qx"><stop offset="0%" stop-color="#ff4a83"></stop><stop offset="100%" stop-color="#ff4a83"></stop></linearGradient></defs><g><path d="M89.1,42.9c-1.5-1.4-2.1-3-0.9-4.8c0.8-1.3,0.5-3-0.8-3.9c-1.8-1.2-1.9-2.7-1.1-4.4c0.7-1.5-0.1-3.3-1.6-3.9    c-1.7-0.7-2.7-1.7-2.4-3.7c0.3-1.5-0.7-3-2.3-3.3c-1.9-0.4-2.6-1.7-2.5-3.5c0-1.7-1.3-3-3-3c-1.8,0-3.1-0.6-3.5-2.5    c-0.3-1.5-1.8-2.5-3.3-2.3c-2,0.4-3-0.6-3.7-2.4c-0.6-1.6-2.3-2.3-3.9-1.6c-1.8,0.8-3.3,0.6-4.4-1.1c-0.8-1.3-2.6-1.7-3.9-0.8    C50,3,48.5,2.4,47.1,0.9c-1.1-1.2-3-1.2-4.1,0c-1.4,1.5-3,2.1-4.8,0.9c-1.3-0.8-3-0.5-3.9,0.8c-1.2,1.8-2.7,1.9-4.4,1.1    C28.3,3,26.5,3.8,26,5.3c-0.7,1.7-1.7,2.7-3.7,2.4c-1.5-0.3-3,0.7-3.3,2.3c-0.4,1.9-1.7,2.6-3.5,2.5c-1.7,0-3,1.3-3,3    c0,1.8-0.6,3.1-2.5,3.5c-1.5,0.3-2.5,1.8-2.3,3.3c0.4,2-0.6,3-2.4,3.7c-1.6,0.6-2.3,2.3-1.6,3.9c0.8,1.8,0.6,3.3-1.1,4.4    c-1.3,0.8-1.7,2.6-0.8,3.9C3,40,2.4,41.5,0.9,42.9c-1.2,1.1-1.2,3,0,4.1c1.5,1.4,2.1,3,0.9,4.8c-0.8,1.3-0.5,3,0.8,3.9    c1.8,1.2,1.9,2.7,1.1,4.4C3,61.7,3.8,63.5,5.3,64c1.7,0.7,2.7,1.7,2.4,3.7c-0.3,1.5,0.7,3,2.3,3.3c1.9,0.4,2.6,1.7,2.5,3.5    c0,1.7,1.3,3,3,3c1.8,0,3.1,0.6,3.5,2.5c0.3,1.5,1.8,2.5,3.3,2.3c2-0.4,3,0.6,3.7,2.4c0.6,1.6,2.3,2.3,3.9,1.6    c1.8-0.8,3.3-0.6,4.4,1.1c0.8,1.3,2.6,1.7,3.9,0.8c1.9-1.2,3.4-0.6,4.8,0.9c1.1,1.2,3,1.2,4.1,0c1.4-1.5,3-2.1,4.8-0.9    c1.3,0.8,3,0.5,3.9-0.8c1.2-1.8,2.7-1.9,4.4-1.1c1.5,0.7,3.3-0.1,3.9-1.6c0.7-1.7,1.7-2.7,3.7-2.4c1.5,0.3,3-0.7,3.3-2.3    c0.4-1.9,1.7-2.6,3.5-2.5c1.7,0,3-1.3,3-3c0-1.8,0.6-3.1,2.5-3.5c1.5-0.3,2.5-1.8,2.3-3.3c-0.4-2,0.6-3,2.4-3.7    c1.6-0.6,2.3-2.3,1.6-3.9c-0.8-1.8-0.6-3.3,1.1-4.4c1.3-0.8,1.7-2.6,0.8-3.9c-1.2-1.9-0.6-3.4,0.9-4.8C90.3,46,90.3,44,89.1,42.9z    " fill="url('#linearGradientSjj7z5ro81qx')"></path></g></svg></g><g transform="matrix(0.5,0,0,0.5,157.5,154.25)"><svg width="221.25" height="175" style="overflow: visible;"><defs><linearGradient x1="0" y1="87.5" x2="221.25" y2="87.5" gradientUnits="userSpaceOnUse" id="linearGradientSjj7z5ro81r6"><stop offset="0%" stop-color="#ffffff"></stop><stop offset="100%" stop-color="#ffffff"></stop></linearGradient></defs><g></g><path fill="none" d="M-50,105.015625 C178.71875,104.015625 218.71875,104.015625 447.4375,105.015625" style=""></path><text fill="url('#linearGradientSjj7z5ro81r6')" dy="113.75" x="177" style="font-size: 100px; font-family: Pacifico; text-anchor: middle;">Magic</text></svg></g><g transform="matrix(1,0,0,1,214,93.5)"><svg width="64.60500127725619" height="67.38499999999999" viewBox="17.696,25.191000000000003,64.60500127725619,67.38499999999999"><defs><linearGradient x1="0" y1="0.5" x2="1" y2="0.5" id="linearGradientSjj7z5ro81rb"><stop offset="0%" stop-color="#ffffff"></stop><stop offset="100%" stop-color="#ffffff"></stop></linearGradient></defs><g><path fill="url('#linearGradientSjj7z5ro81rb')" d="M71.776,53.057c-3.204-5.857-8.706-10.281-15.282-12.068c0.537-1.022,0.844-2.183,0.844-3.414  c0-4.071-3.313-7.384-7.384-7.384s-7.384,3.313-7.384,7.384c0,1.24,0.311,2.407,0.853,3.434c-6.541,1.802-12.009,6.215-15.2,12.049  c-3.18,0.869-5.527,3.776-5.527,7.229c0,2.372,1.11,4.486,2.834,5.861c0.698,0.557,1.496,0.993,2.364,1.273h1.314l3.609,18.143  c0.233,1.169,1.259,2.012,2.452,2.012h30.66c1.192,0,2.219-0.843,2.452-2.012l3.61-18.143h0.113c0.867-0.28,1.666-0.717,2.363-1.273  c1.725-1.375,2.834-3.489,2.834-5.861C77.303,56.833,74.956,53.926,71.776,53.057z M49.954,35.19c1.314,0,2.384,1.069,2.384,2.384  s-1.069,2.384-2.384,2.384s-2.384-1.069-2.384-2.384S48.64,35.19,49.954,35.19z M30.723,57.42c0.321,0,0.626,0.066,0.909,0.177  c0.556-1.392,1.253-2.709,2.096-3.925c3.578-5.16,9.531-8.555,16.272-8.555c6.741,0,12.694,3.395,16.272,8.555  c0.843,1.216,1.54,2.533,2.096,3.925c0.283-0.11,0.588-0.177,0.909-0.177c1.381,0,2.5,1.119,2.5,2.5  c0,1.257-0.929,2.286-2.136,2.464c0.001,0.013,0.004,0.024,0.006,0.036h-0.37h-0.755h-3.645h-2.26H37.382h-2.259h-3.646h-0.754  h-0.37c0.001-0.012,0.004-0.023,0.006-0.036c-1.207-0.178-2.136-1.207-2.136-2.464C28.223,58.539,29.342,57.42,30.723,57.42z   M63.878,82.574H37.321L34.306,67.42h2.611h26.155h3.82L63.878,82.574z"></path></g></svg></g><g transform="matrix(0.5,0,0,0.5,189.25,207.25)"><svg width="283.75" height="175" style="overflow: visible;"><defs><linearGradient x1="0" y1="87.5" x2="283.75" y2="87.5" gradientUnits="userSpaceOnUse" id="linearGradientSjj7z5ro81rk"><stop offset="0%" stop-color="#ffffff"></stop><stop offset="100%" stop-color="#ffffff"></stop></linearGradient></defs><g></g><path fill="none" d="M-50,155.59375 C157.296875,154.59375 197.296875,154.59375 404.59375,155.59375" style=""></path><text fill="url('#linearGradientSjj7z5ro81rk')" dy="113.75" x="113.5" style="font-size: 100px; font-family: Pacifico; text-anchor: middle;">Candy</text></svg></g><g transform="matrix(3.3951,0,0,3.3951,76.2465,31.2465)"><svg width="100" height="100" viewBox="0,0.6460000000000008,100,100" class="thumb"><defs><linearGradient x1="0" y1="0.5" x2="1" y2="0.5" id="linearGradientSjj7z5ro81rp"><stop offset="0%" stop-color="#ffffff"></stop><stop offset="100%" stop-color="#ffffff"></stop></linearGradient></defs><g><path d="M50,95.646c24.854,0,45-20.147,45-45s-20.146-45-45-45s-45,20.147-45,45S25.146,95.646,50,95.646z M50,6.646  c24.262,0,44,19.738,44,44s-19.738,44-44,44s-44-19.738-44-44S25.738,6.646,50,6.646z" fill="url('#linearGradientSjj7z5ro81rp')"></path></g></svg></g></svg>
